<?xml version="1.0" encoding="UTF-8" standalone="no"?>
<svg
   version="1.1"
   id="svg4288"
   viewBox="0 0 600 1000"
   height="1000"
   width="600"
   inkscape:version="1.2.1 (9c6d41e410, 2022-07-14)"
   sodipodi:docname="K_ungroupped.svg"
   inkscape:export-filename="T.png"
   inkscape:export-xdpi="17.280001"
   inkscape:export-ydpi="17.280001"
   xmlns:inkscape="http://www.inkscape.org/namespaces/inkscape"
   xmlns:sodipodi="http://sodipodi.sourceforge.net/DTD/sodipodi-0.dtd"
   xmlns="http://www.w3.org/2000/svg"
   xmlns:svg="http://www.w3.org/2000/svg"
   xmlns:rdf="http://www.w3.org/1999/02/22-rdf-syntax-ns#"
   xmlns:cc="http://creativecommons.org/ns#"
   xmlns:dc="http://purl.org/dc/elements/1.1/">
  <sodipodi:namedview
     pagecolor="#ffffff"
     bordercolor="#666666"
     borderopacity="1"
     objecttolerance="10"
     gridtolerance="10"
     guidetolerance="10"
     inkscape:pageopacity="0"
     inkscape:pageshadow="2"
     inkscape:window-width="1192"
     inkscape:window-height="885"
     id="namedview9"
     showgrid="false"
     inkscape:zoom="0.44851478"
     inkscape:cx="7.8035333"
     inkscape:cy="376.79918"
     inkscape:window-x="2306"
     inkscape:window-y="70"
     inkscape:window-maximized="0"
     inkscape:current-layer="g875"
     units="px"
     inkscape:showpageshadow="2"
     inkscape:pagecheckerboard="0"
     inkscape:deskcolor="#d1d1d1" />
  <defs
     id="defs4290">
    <inkscape:path-effect
       effect="mirror_symmetry"
       start_point="564,52.362161"
       end_point="564,1052.3622"
       center_point="564,552.36216"
       id="path-effect706"
       is_visible="true"
       lpeversion="1.2"
       lpesatellites=""
       mode="vertical"
       discard_orig_path="false"
       fuse_paths="false"
       oposite_fuse="false"
       split_items="false"
       split_open="false"
       link_styles="false" />
    <inkscape:path-effect
       effect="mirror_symmetry"
       start_point="500,52.362161"
       end_point="500,1052.3622"
       center_point="500,552.36216"
       id="path-effect246"
       is_visible="true"
       lpeversion="1.2"
       lpesatellites=""
       mode="vertical"
       discard_orig_path="false"
       fuse_paths="false"
       oposite_fuse="false"
       split_items="false"
       split_open="false"
       link_styles="false" />
  </defs>
  <metadata
     id="metadata4293">
    <rdf:RDF>
      <cc:Work
         rdf:about="">
        <dc:format>image/svg+xml</dc:format>
        <dc:type
           rdf:resource="http://purl.org/dc/dcmitype/StillImage" />
      </cc:Work>
    </rdf:RDF>
  </metadata>
  <g
     inkscape:groupmode="layer"
     id="layer1"
     inkscape:label="Layer 1"
     style="display:inline"
     transform="translate(0,-52.362161)">
    <g
       id="g530">
      <g
         id="g875"
         transform="translate(-288.71681,-11.035859)"
         style="display:inline;fill:#000000;stroke:none">
        <g
           id="g450"
           transform="translate(47.626534)">
          <path
             id="rect1081-0-7-3"
             style="display:inline;fill:#000000;stroke:none;stroke-width:1.009"
             d="m 390.13647,99.50154 c -32.75031,0 -59.11719,26.84784 -59.11719,60.19531 v 807.40234 c 0,33.34741 26.36688,60.19531 59.11719,60.19531 32.75031,0 59.11523,-26.8479 59.11523,-60.19531 V 159.69685 c 0,-33.34747 -26.36492,-60.19531 -59.11523,-60.19531 z" />
          <path
             id="path429"
             style="opacity:1;fill:#000000;stroke:none"
             d="m 576.5293,367.99414 c -9.95724,0.16949 -19.98298,0.58347 -29.86904,2.14553 -12.15825,1.92196 -24.12753,5.03315 -35.66207,9.33514 -34.89677,12.95314 -65.82966,36.16153 -88.34871,65.76751 -3.92432,5.12 -7.54432,10.46651 -10.99688,15.91252 -3.15028,4.37192 -6.41638,8.6596 -9.54559,13.04736 -15.50621,21.49264 -29.95761,44.07924 -40.66267,68.44484 -2.49628,5.67245 -4.81383,11.31392 -6.81796,17.18143 -0.6036,1.82984 -1.29152,3.65527 -1.37583,5.60092 -1.23112,12.05194 2.68597,24.48851 10.42914,33.78155 0.2125,0.24962 0.72937,0.85843 1.07121,1.24336 12.29114,14.18473 31.81432,21.812 50.46342,19.45978 2.22266,-0.28229 4.60385,-0.77524 6.65091,-1.33205 8.10023,-2.1895 15.73661,-6.53347 21.20696,-12.96681 7.26165,-8.15551 12.49553,-17.81983 17.56865,-27.41872 3.32012,-6.28906 6.71296,-12.55255 10.65812,-18.47713 7.77429,-12.14547 15.24538,-24.50179 23.76382,-36.151 10.06988,-13.85972 21.5257,-26.98929 35.5795,-36.94294 5.63824,-3.94514 11.58762,-7.55644 18.05412,-9.97455 6.93161,-2.5407 14.31529,-3.73632 21.67973,-3.95681 16.21576,-0.42138 32.65683,4.47114 45.63687,14.28462 8.1675,6.21349 14.75368,14.57485 18.51498,24.14995 1.90798,4.84601 4.10174,9.58371 5.70501,14.54616 6.03873,18.08881 7.37974,37.55155 5.0486,56.4217 -2.59595,21.37333 -9.58315,42.05991 -19.26597,61.23358 -4.87911,9.61581 -10.5182,18.9146 -16.63281,27.74023 -5.55109,8.2781 -11.21211,16.48647 -17.23221,24.43176 -12.11467,16.19924 -24.87451,31.91358 -36.63693,48.37684 -1.76537,2.48699 -3.62427,5.13657 -5.35084,7.67609 -1.97359,2.89528 -3.94288,5.88495 -5.80916,8.81499 -2.29671,3.64623 -4.91934,7.2813 -5.72246,11.60777 -2.63123,10.12386 -1.41269,21.11858 3.06606,30.54372 0.35903,0.76998 0.87195,1.77015 1.33763,2.60812 7.39575,13.4371 20.36455,23.54072 35.03324,27.87564 8.2602,2.46625 17.15745,2.94111 25.58616,1.04749 0.38817,-0.0956 1.15137,-0.26766 1.67521,-0.4156 6.03215,-1.63549 11.90918,-4.38534 16.39181,-8.82701 3.44333,-3.0877 6.69938,-6.3791 9.83337,-9.77887 0.625,-0.6886 1.49468,-1.63418 2.10843,-2.32865 10.4309,-11.73997 19.48278,-24.6018 29.35348,-36.7986 5.46225,-7.01165 10.51169,-14.3312 15.70226,-21.54327 16.61349,-23.44424 32.56069,-47.51128 45.17813,-73.38243 9.13085,-18.70845 16.44483,-38.37325 20.83404,-58.74867 1.37323,-6.52617 2.62126,-13.08173 3.64006,-19.67299 0.29242,-1.95489 0.59496,-4.11319 0.85274,-6.15131 1.5623,-12.37922 2.18593,-24.87746 1.84844,-37.35064 -0.10661,-3.97231 -0.32915,-8.20324 -0.63968,-12.15261 -0.6272,-8.07505 -1.70306,-16.38964 -3.17084,-24.37295 -0.80726,-4.44339 -1.79431,-9.04338 -2.88994,-13.5051 -1.23577,-5.04048 -2.72716,-10.29341 -4.31126,-15.20958 -3.93666,-12.18294 -8.94536,-24.02483 -15.05078,-35.28125 -0.54899,-0.99021 -1.20765,-2.21066 -1.82345,-3.27815 -7.95168,-14.01464 -17.77617,-27.17029 -29.19363,-38.65613 -1.67174,-1.69143 -3.36344,-3.32021 -5.06375,-4.89347 -4.40309,-4.0956 -9.19411,-8.08213 -14.09519,-11.70707 -3.33716,-2.46957 -6.64944,-4.72359 -10.18194,-6.94872 -1.84135,-1.15034 -3.73749,-2.29567 -5.54751,-3.33114 -6.35637,-3.65969 -12.97144,-6.86622 -19.76055,-9.6404 -0.86516,-0.33477 -1.9771,-0.79522 -2.94754,-1.15856 -19.04393,-7.32622 -39.45685,-11.10086 -59.86691,-10.92542 z" />
        </g>
      </g>
    </g>
  </g>
  <g
     style="display:inline"
     id="layer3"
     transform="translate(0,-52.362161)" />
</svg>
