<?xml version="1.0" encoding="UTF-8" standalone="no"?>
<!-- Created with Inkscape (http://www.inkscape.org/) -->

<svg
   width="600"
   height="1000"
   viewBox="0 0 600 1000"
   id="svg4288"
   version="1.1"
   inkscape:version="1.2.1 (9c6d41e410, 2022-07-14)"
   sodipodi:docname="COMMA.svg"
   inkscape:export-filename="COMMA.png"
   inkscape:export-xdpi="17.280001"
   inkscape:export-ydpi="17.280001"
   xmlns:inkscape="http://www.inkscape.org/namespaces/inkscape"
   xmlns:sodipodi="http://sodipodi.sourceforge.net/DTD/sodipodi-0.dtd"
   xmlns="http://www.w3.org/2000/svg"
   xmlns:svg="http://www.w3.org/2000/svg"
   xmlns:rdf="http://www.w3.org/1999/02/22-rdf-syntax-ns#"
   xmlns:cc="http://creativecommons.org/ns#"
   xmlns:dc="http://purl.org/dc/elements/1.1/">
  <defs
     id="defs4290" />
  <sodipodi:namedview
     id="base"
     pagecolor="#ffffff"
     bordercolor="#666666"
     borderopacity="1.0"
     inkscape:pageopacity="0.0"
     inkscape:pageshadow="2"
     inkscape:zoom="0.5303301"
     inkscape:cx="127.27922"
     inkscape:cy="463.86204"
     inkscape:document-units="px"
     inkscape:current-layer="layer3"
     showgrid="false"
     inkscape:window-width="1635"
     inkscape:window-height="1001"
     inkscape:window-x="41"
     inkscape:window-y="-4"
     inkscape:window-maximized="1"
     units="px"
     showguides="true"
     inkscape:guide-bbox="true"
     inkscape:showpageshadow="2"
     inkscape:pagecheckerboard="0"
     inkscape:deskcolor="#d1d1d1">
    <sodipodi:guide
       position="-171.59124,724.07734"
       orientation="1,0"
       id="guide4149"
       inkscape:locked="false" />
  </sodipodi:namedview>
  <metadata
     id="metadata4293">
    <rdf:RDF>
      <cc:Work
         rdf:about="">
        <dc:format>image/svg+xml</dc:format>
        <dc:type
           rdf:resource="http://purl.org/dc/dcmitype/StillImage" />
      </cc:Work>
    </rdf:RDF>
  </metadata>
  <g
     inkscape:groupmode="layer"
     id="layer3"
     inkscape:label="Layer 3">
    <path
       style="fill:#000000;fill-opacity:1;stroke:none"
       d="m 300,681.66602 a 83,83 0 0 0 -83,83 83,83 0 0 0 64.6582,80.87304 l -40.97461,113.8418 c -4.60901,12.80585 2.42638,25.25937 15.77344,27.92187 l 23.16211,4.61915 c 13.34706,2.6625 27.80114,-5.50275 32.41016,-18.3086 l 61.08984,-169.73047 a 83,83 0 0 0 8.28125,-23.08984 c 0.75341,-2.40799 1.09987,-4.79356 1.07227,-7.0957 A 83,83 0 0 0 383,764.66602 a 83,83 0 0 0 -83,-83 z"
       id="path4161" />
  </g>
</svg>
