<?xml version="1.0" encoding="UTF-8" standalone="no"?>
<svg
   version="1.1"
   id="svg4288"
   viewBox="0 0 1000 1000"
   height="1000"
   width="1000"
   inkscape:version="1.2.1 (9c6d41e410, 2022-07-14)"
   sodipodi:docname="S.svg"
   inkscape:export-filename="S.png"
   inkscape:export-xdpi="17.280001"
   inkscape:export-ydpi="17.280001"
   xmlns:inkscape="http://www.inkscape.org/namespaces/inkscape"
   xmlns:sodipodi="http://sodipodi.sourceforge.net/DTD/sodipodi-0.dtd"
   xmlns="http://www.w3.org/2000/svg"
   xmlns:svg="http://www.w3.org/2000/svg"
   xmlns:rdf="http://www.w3.org/1999/02/22-rdf-syntax-ns#"
   xmlns:cc="http://creativecommons.org/ns#"
   xmlns:dc="http://purl.org/dc/elements/1.1/">
  <sodipodi:namedview
     pagecolor="#ffffff"
     bordercolor="#666666"
     borderopacity="1"
     objecttolerance="10"
     gridtolerance="10"
     guidetolerance="10"
     inkscape:pageopacity="0"
     inkscape:pageshadow="2"
     inkscape:window-width="1280"
     inkscape:window-height="975"
     id="namedview9"
     showgrid="false"
     inkscape:zoom="0.63429568"
     inkscape:cx="386.25519"
     inkscape:cy="507.64968"
     inkscape:window-x="-4"
     inkscape:window-y="-4"
     inkscape:window-maximized="1"
     inkscape:current-layer="layer1"
     units="px"
     inkscape:showpageshadow="2"
     inkscape:pagecheckerboard="0"
     inkscape:deskcolor="#d1d1d1" />
  <defs
     id="defs4290" />
  <metadata
     id="metadata4293">
    <rdf:RDF>
      <cc:Work
         rdf:about="">
        <dc:format>image/svg+xml</dc:format>
        <dc:type
           rdf:resource="http://purl.org/dc/dcmitype/StillImage" />
        <dc:title />
      </cc:Work>
    </rdf:RDF>
  </metadata>
  <g
     inkscape:groupmode="layer"
     id="layer1"
     inkscape:label="Layer 1"
     style="display:inline"
     transform="translate(0,-52.362161)">
    <path
       id="path4255-6"
       style="display:inline;fill:#000000;fill-opacity:1;stroke:none"
       d="M 501.76176,280.14795 A 123.33333,123.33333 0 0 0 378.43166,403.478 123.33333,123.33333 0 0 0 501.76176,526.8179 123.33333,123.33333 0 0 0 625.10156,403.478 123.33333,123.33333 0 0 0 501.76176,280.14795 Z m -385.11395,246.9552 c -9.6018,-0.095 -19.147148,3.2307 -31.552748,9.2578 -32.6471,15.8612 -50.273,48.08665 -44.1504,80.7227 13.08565,69.7527 165.376498,160.56895 328.320348,195.791 127.36485,27.5313 294.89075,5.3901 415.62495,-54.93165 78.0521,-38.99675 167.62555,-108.62575 174.38475,-135.55665 5.5501,-22.1133 -13.1827,-63.691 -36.03515,-79.98045 -32.6853,-23.29835 -60.4745,-19.51855 -107.22655,15.2246 A 453.25866,453.25866 0 0 1 499.71416,686.2731 453.25866,453.25866 0 0 1 209.13801,580.76525 c -10.45405,-6.804 -20.63055,-13.9076 -30.49805,-21.34765 -29.8287,-22.49065 -45.98925,-32.156 -61.9922,-32.31445 z"
       inkscape:connector-curvature="0" />
  </g>
  <g
     style="display:inline"
     id="layer3"
     transform="translate(0,-52.362161)" />
</svg>
