<?xml version="1.0" encoding="UTF-8" standalone="no"?>
<svg
   version="1.1"
   id="svg4288"
   viewBox="0 0 1000 1000"
   height="1000"
   width="1000"
   inkscape:version="1.2.1 (9c6d41e410, 2022-07-14)"
   sodipodi:docname="TH-L_ungroupped.svg"
   inkscape:export-filename="TH.png"
   inkscape:export-xdpi="17.280001"
   inkscape:export-ydpi="17.280001"
   xmlns:inkscape="http://www.inkscape.org/namespaces/inkscape"
   xmlns:sodipodi="http://sodipodi.sourceforge.net/DTD/sodipodi-0.dtd"
   xmlns="http://www.w3.org/2000/svg"
   xmlns:svg="http://www.w3.org/2000/svg"
   xmlns:rdf="http://www.w3.org/1999/02/22-rdf-syntax-ns#"
   xmlns:cc="http://creativecommons.org/ns#"
   xmlns:dc="http://purl.org/dc/elements/1.1/">
  <sodipodi:namedview
     pagecolor="#ffffff"
     bordercolor="#666666"
     borderopacity="1"
     objecttolerance="10"
     gridtolerance="10"
     guidetolerance="10"
     inkscape:pageopacity="0"
     inkscape:pageshadow="2"
     inkscape:window-width="1920"
     inkscape:window-height="1017"
     id="namedview9"
     showgrid="false"
     inkscape:zoom="0.44851478"
     inkscape:cx="99.216351"
     inkscape:cy="501.65571"
     inkscape:window-x="-4"
     inkscape:window-y="-4"
     inkscape:window-maximized="1"
     inkscape:current-layer="g10"
     units="px"
     inkscape:showpageshadow="2"
     inkscape:pagecheckerboard="0"
     inkscape:deskcolor="#d1d1d1" />
  <defs
     id="defs4290" />
  <metadata
     id="metadata4293">
    <rdf:RDF>
      <cc:Work
         rdf:about="">
        <dc:format>image/svg+xml</dc:format>
        <dc:type
           rdf:resource="http://purl.org/dc/dcmitype/StillImage" />
      </cc:Work>
    </rdf:RDF>
  </metadata>
  <g
     inkscape:groupmode="layer"
     id="layer2"
     inkscape:label="Layer 2">
    <g
       id="g10">
      <g
         id="g357"
         style="stroke:none">
        <path
           id="path4255-6"
           style="display:inline;fill:#000000;fill-opacity:1;stroke:none"
           d="m 116.64778,478.39648 c -9.60179,-0.095 -19.147152,3.23072 -31.55274,9.25782 -32.647067,15.86118 -50.272984,48.08664 -44.15039,80.72265 13.085637,69.75263 165.37663,160.569 328.32032,195.79102 127.36472,27.53127 294.89096,5.39005 415.625,-54.93164 78.05205,-38.99671 167.62557,-108.62577 174.38476,-135.55664 5.5501,-22.11328 -13.18268,-63.69104 -36.03515,-79.98047 -32.68527,-23.29833 -60.47461,-19.51851 -107.22657,15.22461 A 453.25866,453.25866 0 0 1 499.71418,637.56641 453.25866,453.25866 0 0 1 209.13801,532.05859 C 198.68397,525.2546 188.50746,518.15098 178.63997,510.71094 148.8113,488.22031 132.65071,478.55493 116.64778,478.39648 Z" />
        <rect
           style="fill:#000000;stroke:none;stroke-width:0.948016"
           id="rect353"
           width="158.30023"
           height="316.60049"
           x="420.84988"
           y="443.69977"
           rx="79.150116"
           ry="79.150116" />
      </g>
    </g>
  </g>
  <g
     style="display:inline"
     id="layer3"
     transform="translate(0,-52.362161)" />
</svg>
