<?xml version="1.0" encoding="UTF-8" standalone="no"?>
<!-- Created with Inkscape (http://www.inkscape.org/) -->

<svg
   width="1000"
   height="1000"
   viewBox="0 0 1000 1000"
   id="svg4288"
   version="1.1"
   inkscape:version="1.2.1 (9c6d41e410, 2022-07-14)"
   sodipodi:docname="O.svg"
   inkscape:export-filename="O.png"
   inkscape:export-xdpi="17.280001"
   inkscape:export-ydpi="17.280001"
   xmlns:inkscape="http://www.inkscape.org/namespaces/inkscape"
   xmlns:sodipodi="http://sodipodi.sourceforge.net/DTD/sodipodi-0.dtd"
   xmlns="http://www.w3.org/2000/svg"
   xmlns:svg="http://www.w3.org/2000/svg"
   xmlns:rdf="http://www.w3.org/1999/02/22-rdf-syntax-ns#"
   xmlns:cc="http://creativecommons.org/ns#"
   xmlns:dc="http://purl.org/dc/elements/1.1/">
  <defs
     id="defs4290" />
  <sodipodi:namedview
     id="base"
     pagecolor="#ffffff"
     bordercolor="#666666"
     borderopacity="1.0"
     inkscape:pageopacity="0.0"
     inkscape:pageshadow="2"
     inkscape:zoom="0.53033009"
     inkscape:cx="372.40957"
     inkscape:cy="499.68879"
     inkscape:document-units="px"
     inkscape:current-layer="layer1"
     showgrid="false"
     inkscape:window-width="1280"
     inkscape:window-height="975"
     inkscape:window-x="-4"
     inkscape:window-y="-4"
     inkscape:window-maximized="1"
     units="px"
     showguides="true"
     inkscape:guide-bbox="true"
     inkscape:showpageshadow="2"
     inkscape:pagecheckerboard="0"
     inkscape:deskcolor="#d1d1d1">
    <sodipodi:guide
       position="-171.59124,724.07734"
       orientation="1,0"
       id="guide4149"
       inkscape:locked="false" />
  </sodipodi:namedview>
  <metadata
     id="metadata4293">
    <rdf:RDF>
      <cc:Work
         rdf:about="">
        <dc:format>image/svg+xml</dc:format>
        <dc:type
           rdf:resource="http://purl.org/dc/dcmitype/StillImage" />
        <dc:title />
      </cc:Work>
    </rdf:RDF>
  </metadata>
  <g
     inkscape:label="Layer 1"
     inkscape:groupmode="layer"
     id="layer1"
     transform="translate(0,-52.362161)"
     style="display:inline">
    <path
       id="path4151"
       style="display:inline;fill:#000000;fill-opacity:1;stroke:none"
       d="M 469.99903,312.8895 A 239.4735,239.4735 0 0 0 230.52637,552.36216 239.4735,239.4735 0 0 0 469.99903,791.83482 239.4735,239.4735 0 0 0 709.47363,552.36216 239.4735,239.4735 0 0 0 469.99903,312.8895 Z m 1.88672,113.36524 A 124.45078,124.45078 0 0 1 596.33691,550.70591 124.45078,124.45078 0 0 1 471.88575,675.15513 124.45078,124.45078 0 0 1 347.43457,550.70591 124.45078,124.45078 0 0 1 471.88575,426.25474 Z M 469.99995,82.362141 A 470,470 0 0 0 0,552.36214 470,470 0 0 0 469.99995,1022.3622 470,470 0 0 0 940,552.36214 470,470 0 0 0 469.99995,82.362141 Z m 2.5,129.941399 a 345,345 0 0 1 345.00005,345 345,345 0 0 1 -345.00005,345 345,345 0 0 1 -344.99995,-345 345,345 0 0 1 344.99995,-345 z"
       inkscape:connector-curvature="0" />
  </g>
</svg>
