<?xml version="1.0" encoding="UTF-8" standalone="no"?>
<!-- Created with Inkscape (http://www.inkscape.org/) -->

<svg
   width="1000"
   height="1000"
   viewBox="0 0 1000 1000"
   id="svg4288"
   version="1.1"
   inkscape:version="1.2.1 (9c6d41e410, 2022-07-14)"
   sodipodi:docname="O-UMLAUT.svg"
   inkscape:export-filename="O-UMLAUT.png"
   inkscape:export-xdpi="17.280001"
   inkscape:export-ydpi="17.280001"
   xmlns:inkscape="http://www.inkscape.org/namespaces/inkscape"
   xmlns:sodipodi="http://sodipodi.sourceforge.net/DTD/sodipodi-0.dtd"
   xmlns="http://www.w3.org/2000/svg"
   xmlns:svg="http://www.w3.org/2000/svg"
   xmlns:rdf="http://www.w3.org/1999/02/22-rdf-syntax-ns#"
   xmlns:cc="http://creativecommons.org/ns#"
   xmlns:dc="http://purl.org/dc/elements/1.1/">
  <defs
     id="defs4290" />
  <sodipodi:namedview
     id="base"
     pagecolor="#ffffff"
     bordercolor="#666666"
     borderopacity="1.0"
     inkscape:pageopacity="0.0"
     inkscape:pageshadow="2"
     inkscape:zoom="0.5"
     inkscape:cx="327"
     inkscape:cy="530"
     inkscape:document-units="px"
     inkscape:current-layer="layer1"
     showgrid="false"
     inkscape:window-width="1280"
     inkscape:window-height="975"
     inkscape:window-x="-4"
     inkscape:window-y="-4"
     inkscape:window-maximized="1"
     units="px"
     showguides="true"
     inkscape:guide-bbox="true"
     inkscape:showpageshadow="2"
     inkscape:pagecheckerboard="0"
     inkscape:deskcolor="#d1d1d1">
    <sodipodi:guide
       position="-171.59124,724.07734"
       orientation="1,0"
       id="guide4149"
       inkscape:locked="false" />
  </sodipodi:namedview>
  <metadata
     id="metadata4293">
    <rdf:RDF>
      <cc:Work
         rdf:about="">
        <dc:format>image/svg+xml</dc:format>
        <dc:type
           rdf:resource="http://purl.org/dc/dcmitype/StillImage" />
        <dc:title />
      </cc:Work>
    </rdf:RDF>
  </metadata>
  <g
     inkscape:label="Layer 1"
     inkscape:groupmode="layer"
     id="layer1"
     transform="translate(0,-52.362161)"
     style="display:inline">
    <path
       id="path4151"
       style="display:inline;fill:#000000;fill-opacity:1;stroke:none"
       d="M 470 82.362161 A 470 470 0 0 0 0 552.36216 A 470 470 0 0 0 470 1022.3622 A 470 470 0 0 0 940 552.36216 A 470 470 0 0 0 470 82.362161 z M 472.5 212.30357 A 345 345 0 0 1 810.85547 490.60435 L 700.30859 490.60435 A 239.4735 239.4735 0 0 0 470 312.8895 A 239.4735 239.4735 0 0 0 239.68945 490.60435 L 134.5625 490.60435 A 345 345 0 0 1 472.5 212.30357 z M 471.88672 426.25474 A 124.45078 124.45078 0 0 1 596.33594 550.70591 A 124.45078 124.45078 0 0 1 471.88672 675.15513 A 124.45078 124.45078 0 0 1 347.43359 550.70591 A 124.45078 124.45078 0 0 1 471.88672 426.25474 z M 134.1875 622.60435 L 242.26367 622.60435 A 239.4735 239.4735 0 0 0 470 791.83482 A 239.4735 239.4735 0 0 0 697.73633 622.60435 L 811.14453 622.60435 A 345 345 0 0 1 472.5 902.30357 A 345 345 0 0 1 134.1875 622.60435 z " />
  </g>
</svg>
