<?xml version="1.0" encoding="UTF-8" standalone="no"?>
<svg
   version="1.1"
   id="svg4288"
   viewBox="0 0 999.99999 999.99999"
   height="1000"
   width="1000"
   inkscape:version="1.2.1 (9c6d41e410, 2022-07-14)"
   sodipodi:docname="U-UMLAUT.svg"
   inkscape:export-filename="U-UMLAUT.png"
   inkscape:export-xdpi="17.280001"
   inkscape:export-ydpi="17.280001"
   xmlns:inkscape="http://www.inkscape.org/namespaces/inkscape"
   xmlns:sodipodi="http://sodipodi.sourceforge.net/DTD/sodipodi-0.dtd"
   xmlns="http://www.w3.org/2000/svg"
   xmlns:svg="http://www.w3.org/2000/svg"
   xmlns:rdf="http://www.w3.org/1999/02/22-rdf-syntax-ns#"
   xmlns:cc="http://creativecommons.org/ns#"
   xmlns:dc="http://purl.org/dc/elements/1.1/">
  <sodipodi:namedview
     pagecolor="#ffffff"
     bordercolor="#666666"
     borderopacity="1"
     objecttolerance="10"
     gridtolerance="10"
     guidetolerance="10"
     inkscape:pageopacity="0"
     inkscape:pageshadow="2"
     inkscape:window-width="1280"
     inkscape:window-height="975"
     id="namedview9"
     showgrid="false"
     inkscape:zoom="0.5"
     inkscape:cx="398"
     inkscape:cy="532"
     inkscape:window-x="-4"
     inkscape:window-y="-4"
     inkscape:window-maximized="1"
     inkscape:current-layer="g4878"
     units="px"
     inkscape:showpageshadow="2"
     inkscape:pagecheckerboard="0"
     inkscape:deskcolor="#d1d1d1" />
  <defs
     id="defs4290">
    <inkscape:path-effect
       effect="mirror_symmetry"
       start_point="1065.6854,48.11963"
       end_point="1065.6854,1048.1196"
       center_point="1065.6854,548.11963"
       id="path-effect373"
       is_visible="true"
       lpeversion="1.2"
       lpesatellites=""
       mode="free"
       discard_orig_path="false"
       fuse_paths="false"
       oposite_fuse="false"
       split_items="false"
       split_open="false"
       link_styles="false" />
  </defs>
  <metadata
     id="metadata4293">
    <rdf:RDF>
      <cc:Work
         rdf:about="">
        <dc:format>image/svg+xml</dc:format>
        <dc:type
           rdf:resource="http://purl.org/dc/dcmitype/StillImage" />
        <dc:title />
      </cc:Work>
    </rdf:RDF>
  </metadata>
  <g
     style="display:inline"
     id="layer3"
     transform="translate(0,-52.362271)">
    <g
       style="fill:#000000;fill-opacity:1"
       id="g4878">
      <path
         id="path4255"
         style="display:inline;fill:#000000;fill-opacity:1;stroke:none"
         d="M 470 82.362271 A 470 470 0 0 0 0 552.36227 A 470 470 0 0 0 470 1022.3623 A 470 470 0 0 0 940 552.36227 A 470 470 0 0 0 470 82.362271 z M 472.5 212.30368 A 345 345 0 0 1 810.4375 490.60446 L 695.64453 490.60446 C 659.08057 490.60446 629.64453 520.0405 629.64453 556.60446 C 629.64453 593.16842 659.08057 622.60446 695.64453 622.60446 L 810.8125 622.60446 A 345 345 0 0 1 472.5 902.30368 A 345 345 0 0 1 134.1875 622.60446 L 252.27344 622.60446 C 288.8374 622.60446 318.27344 593.16842 318.27344 556.60446 C 318.27344 520.0405 288.8374 490.60446 252.27344 490.60446 L 134.5625 490.60446 A 345 345 0 0 1 472.5 212.30368 z M 473.86719 425.5654 A 123.33333 123.33333 0 0 0 350.53711 548.89547 A 123.33333 123.33333 0 0 0 473.86719 672.23532 A 123.33333 123.33333 0 0 0 597.20703 548.89547 A 123.33333 123.33333 0 0 0 473.86719 425.5654 z " />
    </g>
  </g>
</svg>
