<?xml version="1.0" encoding="UTF-8" standalone="no"?>
<!-- Created with Inkscape (http://www.inkscape.org/) -->

<svg
   width="1000"
   height="1000"
   viewBox="0 0 1000 1000"
   id="svg4288"
   version="1.1"
   inkscape:version="1.2.1 (9c6d41e410, 2022-07-14)"
   sodipodi:docname="DIVISION.svg"
   inkscape:export-filename="DIVISION.png"
   inkscape:export-xdpi="17.280001"
   inkscape:export-ydpi="17.280001"
   xmlns:inkscape="http://www.inkscape.org/namespaces/inkscape"
   xmlns:sodipodi="http://sodipodi.sourceforge.net/DTD/sodipodi-0.dtd"
   xmlns="http://www.w3.org/2000/svg"
   xmlns:svg="http://www.w3.org/2000/svg"
   xmlns:rdf="http://www.w3.org/1999/02/22-rdf-syntax-ns#"
   xmlns:cc="http://creativecommons.org/ns#"
   xmlns:dc="http://purl.org/dc/elements/1.1/">
  <defs
     id="defs4290" />
  <sodipodi:namedview
     id="base"
     pagecolor="#ffffff"
     bordercolor="#666666"
     borderopacity="1.0"
     inkscape:pageopacity="0.0"
     inkscape:pageshadow="2"
     inkscape:zoom="0.53033008"
     inkscape:cx="98.99495"
     inkscape:cy="571.34229"
     inkscape:document-units="px"
     inkscape:current-layer="layer4"
     showgrid="false"
     inkscape:window-width="1635"
     inkscape:window-height="1001"
     inkscape:window-x="41"
     inkscape:window-y="-4"
     inkscape:window-maximized="1"
     showguides="false"
     units="px"
     inkscape:showpageshadow="2"
     inkscape:pagecheckerboard="0"
     inkscape:deskcolor="#d1d1d1" />
  <metadata
     id="metadata4293">
    <rdf:RDF>
      <cc:Work
         rdf:about="">
        <dc:format>image/svg+xml</dc:format>
        <dc:type
           rdf:resource="http://purl.org/dc/dcmitype/StillImage" />
        <dc:title />
      </cc:Work>
    </rdf:RDF>
  </metadata>
  <g
     inkscape:groupmode="layer"
     id="layer4"
     inkscape:label="Layer 3"
     transform="translate(0,-52.362161)">
    <path
       style="fill:#000000;stroke:none"
       d="m 452.58364,960.07493 c -48.75971,-15.5443 -88.0337,-80.6864 -79.6803,-132.16233 8.88274,-54.73794 40.69674,-90.22544 93.56118,-104.3645 92.18334,-24.65532 174.26696,61.39975 148.01196,155.17323 -18.848,67.3183 -91.46037,103.8071 -161.89284,81.3536 z M 52.980901,595.97896 c -23.95819,-20.15948 -30.52463,-50.27383 -16.7644,-76.88318 20.7625,-40.15025 3.39951,-38.79396 472.773329,-36.93005 l 425.57865,1.68999 18.2352,20.41111 c 19.7772,22.1371 23.2803,46.05271 10.7683,73.51353 -15.926,34.95398 -5.6409,34.20036 -466.74323,34.20036 l -424.830839,0 -19.01701,-16.00176 z M 452.58364,378.82497 c -48.75971,-15.54433 -88.0337,-80.68645 -79.6803,-132.16239 8.88274,-54.73792 40.69674,-90.22541 93.56118,-104.3645 92.18334,-24.65528 174.26696,61.39978 148.01196,155.17329 -18.848,67.31826 -91.46037,103.80709 -161.89284,81.3536 z"
       id="path4544"
       inkscape:connector-curvature="0" />
  </g>
  <g
     inkscape:groupmode="layer"
     id="layer1"
     inkscape:label="Layer 4" />
</svg>
