<?xml version="1.0" encoding="UTF-8" standalone="no"?>
<!-- Created with Inkscape (http://www.inkscape.org/) -->

<svg
   width="1000"
   height="1000"
   viewBox="0 0 1000 1000"
   id="svg4288"
   version="1.1"
   inkscape:version="1.2.1 (9c6d41e410, 2022-07-14)"
   sodipodi:docname="SUBTRACTION.svg"
   inkscape:export-filename="SUBTRACTION.png"
   inkscape:export-xdpi="17.280001"
   inkscape:export-ydpi="17.280001"
   xmlns:inkscape="http://www.inkscape.org/namespaces/inkscape"
   xmlns:sodipodi="http://sodipodi.sourceforge.net/DTD/sodipodi-0.dtd"
   xmlns="http://www.w3.org/2000/svg"
   xmlns:svg="http://www.w3.org/2000/svg"
   xmlns:rdf="http://www.w3.org/1999/02/22-rdf-syntax-ns#"
   xmlns:cc="http://creativecommons.org/ns#"
   xmlns:dc="http://purl.org/dc/elements/1.1/">
  <defs
     id="defs4290" />
  <sodipodi:namedview
     id="base"
     pagecolor="#ffffff"
     bordercolor="#666666"
     borderopacity="1.0"
     inkscape:pageopacity="0.0"
     inkscape:pageshadow="2"
     inkscape:zoom="0.53033008"
     inkscape:cx="-68.825061"
     inkscape:cy="571.34229"
     inkscape:document-units="px"
     inkscape:current-layer="layer4"
     showgrid="false"
     inkscape:window-width="1635"
     inkscape:window-height="1001"
     inkscape:window-x="41"
     inkscape:window-y="-4"
     inkscape:window-maximized="1"
     showguides="false"
     units="px"
     inkscape:showpageshadow="2"
     inkscape:pagecheckerboard="0"
     inkscape:deskcolor="#d1d1d1" />
  <metadata
     id="metadata4293">
    <rdf:RDF>
      <cc:Work
         rdf:about="">
        <dc:format>image/svg+xml</dc:format>
        <dc:type
           rdf:resource="http://purl.org/dc/dcmitype/StillImage" />
        <dc:title />
      </cc:Work>
    </rdf:RDF>
  </metadata>
  <g
     inkscape:groupmode="layer"
     id="layer4"
     inkscape:label="Layer 3"
     transform="translate(0,-52.362161)">
    <path
       style="fill:#000000;stroke:none"
       d="M 466.24952,1005.5095 C 448.41098,995.9673 421.4448,953.14652 289.91205,725.49473 120.15954,431.69372 119.41878,429.92288 152.4527,396.88896 l 18.26923,-18.26923 329.08654,0 329.08652,0 18.2692,18.26923 c 33.4687,33.46866 32.8228,35.03104 -134.3828,325.04314 -83.9587,145.62322 -158.07716,270.1946 -164.70782,276.8253 -17.34534,17.3453 -56.04968,20.5392 -81.82405,6.7521 z M 600.56069,670.40892 c 52.111,-90.01531 93.4845,-165.77357 91.9412,-168.35169 -1.5434,-2.57812 -88.4214,-4.6875 -193.06228,-4.6875 -141.7708,0 -190.25614,1.87514 -190.25614,7.35802 0,10.73232 189.35465,336.62067 193.29884,332.67647 1.83212,-1.8321 45.96739,-76.97999 98.07838,-166.9953 z"
       id="path4572"
       inkscape:connector-curvature="0" />
  </g>
  <g
     inkscape:groupmode="layer"
     id="layer1"
     inkscape:label="Layer 4" />
</svg>
