<?xml version="1.0" encoding="UTF-8" standalone="no"?>
<svg
   version="1.1"
   id="svg4288"
   viewBox="0 0 1000 1000"
   height="1000"
   width="1000"
   inkscape:version="1.2.1 (9c6d41e410, 2022-07-14)"
   sodipodi:docname="Z.svg"
   inkscape:export-filename="Z.png"
   inkscape:export-xdpi="17.280001"
   inkscape:export-ydpi="17.280001"
   xmlns:inkscape="http://www.inkscape.org/namespaces/inkscape"
   xmlns:sodipodi="http://sodipodi.sourceforge.net/DTD/sodipodi-0.dtd"
   xmlns="http://www.w3.org/2000/svg"
   xmlns:svg="http://www.w3.org/2000/svg"
   xmlns:rdf="http://www.w3.org/1999/02/22-rdf-syntax-ns#"
   xmlns:cc="http://creativecommons.org/ns#"
   xmlns:dc="http://purl.org/dc/elements/1.1/">
  <sodipodi:namedview
     pagecolor="#ffffff"
     bordercolor="#666666"
     borderopacity="1"
     objecttolerance="10"
     gridtolerance="10"
     guidetolerance="10"
     inkscape:pageopacity="0"
     inkscape:pageshadow="2"
     inkscape:window-width="1280"
     inkscape:window-height="975"
     id="namedview9"
     showgrid="false"
     inkscape:zoom="0.63429568"
     inkscape:cx="253.03656"
     inkscape:cy="507.64968"
     inkscape:window-x="-4"
     inkscape:window-y="-4"
     inkscape:window-maximized="1"
     inkscape:current-layer="layer1"
     units="px"
     inkscape:showpageshadow="2"
     inkscape:pagecheckerboard="0"
     inkscape:deskcolor="#d1d1d1" />
  <defs
     id="defs4290" />
  <metadata
     id="metadata4293">
    <rdf:RDF>
      <cc:Work
         rdf:about="">
        <dc:format>image/svg+xml</dc:format>
        <dc:type
           rdf:resource="http://purl.org/dc/dcmitype/StillImage" />
        <dc:title />
      </cc:Work>
    </rdf:RDF>
  </metadata>
  <g
     inkscape:groupmode="layer"
     id="layer1"
     inkscape:label="Layer 1"
     style="display:inline"
     transform="translate(0,-52.362161)">
    <path
       id="path4255-6"
       style="display:inline;fill:#000000;fill-opacity:1;stroke:none"
       d="M 501.76172 280.14732 A 123.33333 123.33333 0 0 0 378.43164 403.4774 A 123.33333 123.33333 0 0 0 501.76172 526.81724 A 123.33333 123.33333 0 0 0 625.10156 403.4774 A 123.33333 123.33333 0 0 0 501.76172 280.14732 z M 116.64844 527.1024 C 107.04665 527.0074 97.501291 530.33311 85.095703 536.36021 C 52.448636 552.22139 34.822719 584.44685 40.945312 617.08286 C 54.030949 686.83549 206.32194 777.65186 369.26562 812.87388 C 397.08836 818.88807 426.88939 822.39471 457.63867 823.78794 L 457.63867 944.19419 L 352.84766 944.19419 C 329.37911 944.19419 310.48633 963.08893 310.48633 986.55747 C 310.48633 1010.026 329.37911 1028.9188 352.84766 1028.9188 L 647.15234 1028.9188 C 670.62089 1028.9188 689.51367 1010.026 689.51367 986.55747 C 689.51367 963.08893 670.62089 944.19419 647.15234 944.19419 L 542.36133 944.19419 L 542.36133 822.18638 C 627.61588 815.33347 714.25551 793.23327 784.89062 757.94224 C 862.94265 718.94553 952.5162 649.31647 959.27539 622.3856 C 964.82549 600.27232 946.09266 558.69456 923.24023 542.40513 C 890.55497 519.1068 862.76568 522.88662 816.01367 557.62974 A 453.25866 453.25866 0 0 1 499.71484 686.27232 A 453.25866 453.25866 0 0 1 209.13867 580.7645 C 198.68463 573.96051 188.50812 566.85689 178.64062 559.41685 C 148.81195 536.92622 132.65137 527.26085 116.64844 527.1024 z " />
  </g>
  <g
     style="display:inline"
     id="layer3"
     transform="translate(0,-52.362161)" />
</svg>
